{
    "asset" : {
        "generator" : "Khronos glTF Blender I/O v3.4.50",
        "version" : "2.0"
    },
    "scene" : 0,
    "scenes" : [
        {
            "name" : "Scene",
            "nodes" : [
                0
            ]
        }
    ],
    "nodes" : [
        {
            "mesh" : 0,
            "name" : "Text",
            "rotation" : [
                -0.7071068286895752,
                0,
                0,
                0.7071068286895752
            ],
            "scale" : [
                -3.5140016078948975,
                -3.5140016078948975,
                -3.5140016078948975
            ],
            "translation" : [
                -0.04913295805454254,
                1.759352684020996,
                -0.894029974937439
            ]
        }
    ],
    "materials" : [
        {
            "doubleSided" : true,
            "name" : "Material.001",
            "pbrMetallicRoughness" : {
                "baseColorFactor" : [
                    0,
                    0,
                    0,
                    1
                ],
                "metallicFactor" : 0,
                "roughnessFactor" : 0.5
            }
        }
    ],
    "meshes" : [
        {
            "name" : "Text",
            "primitives" : [
                {
                    "attributes" : {
                        "POSITION" : 0,
                        "TEXCOORD_0" : 1,
                        "NORMAL" : 2
                    },
                    "indices" : 3,
                    "material" : 0
                }
            ]
        }
    ],
    "accessors" : [
        {
            "bufferView" : 0,
            "componentType" : 5126,
            "count" : 1226,
            "max" : [
                0.1730000376701355,
                0.019999999552965164,
                0.3500000238418579
            ],
            "min" : [
                -0.18699997663497925,
                -0.019999999552965164,
                -0.3500000238418579
            ],
            "type" : "VEC3"
        },
        {
            "bufferView" : 1,
            "componentType" : 5126,
            "count" : 1226,
            "type" : "VEC2"
        },
        {
            "bufferView" : 2,
            "componentType" : 5126,
            "count" : 1226,
            "type" : "VEC3"
        },
        {
            "bufferView" : 3,
            "componentType" : 5123,
            "count" : 2184,
            "type" : "SCALAR"
        }
    ],
    "bufferViews" : [
        {
            "buffer" : 0,
            "byteLength" : 14712,
            "byteOffset" : 0,
            "target" : 34962
        },
        {
            "buffer" : 0,
            "byteLength" : 9808,
            "byteOffset" : 14712,
            "target" : 34962
        },
        {
            "buffer" : 0,
            "byteLength" : 14712,
            "byteOffset" : 24520,
            "target" : 34962
        },
        {
            "buffer" : 0,
            "byteLength" : 4368,
            "byteOffset" : 39232,
            "target" : 34963
        }
    ],
    "buffers" : [
        {
            "byteLength" : 43600,
            "uri" : "data:application/octet-stream;base64,"
        }
    ]
}
